<?xml version="1.0" encoding="utf-8"?>
<!-- Generator: Adobe Illustrator 24.0.0, SVG Export Plug-In . SVG Version: 6.00 Build 0)  -->
<svg version="1.1" id="Layer_1" xmlns="http://www.w3.org/2000/svg" xmlns:xlink="http://www.w3.org/1999/xlink" x="0px" y="0px"
	 viewBox="0 0 220 80" style="enable-background:new 0 0 220 80;" xml:space="preserve">
<style type="text/css">
	.st0{fill:#1875BA;}
	.st1{fill:#E42328;}
</style>
<g id="XMLID_44_">
	<g id="XMLID_247_">
		<g id="XMLID_248_">
			<g id="XMLID_548_">
				<path id="XMLID_550_" class="st0" d="M22.06,54.14h-5.45l6.73-21.47c0.03-0.09,0.04-0.19,0.04-0.29c0-0.1-0.01-0.19-0.04-0.29
					l-4.65-14.84L4.42,61.99h1.39h7.62H24.7l-2.15-7.85H22.06z"/>
				<polygon id="XMLID_549_" class="st0" points="30.02,17.28 30,17.28 20.51,17.28 27.97,41.11 24.72,41.11 27.14,48.69 
					30.35,48.69 31.45,52.2 42.18,52.2 31.24,17.28 				"/>
			</g>
			<polygon id="XMLID_547_" class="st1" points="75.89,28.38 63.12,28.38 44.04,52.2 57.11,52.2 			"/>
			<polygon id="XMLID_546_" class="st1" points="61.82,26.54 61.94,26.54 64.35,26.54 72.56,26.54 77.08,26.54 77.08,17.31 
				72.56,17.31 39.49,17.31 42.21,26.54 61.82,26.54 			"/>
			<g id="XMLID_419_">
				<path id="XMLID_456_" class="st1" d="M52.45,54.05v1.27v0.16v0.25h1.27V57h-1.27v0.41v1.27v0.41h1.27v1.27h-1.27v0.41v1.27v0
					h153.12L204.99,64l10.33-5.96l-5.46-3.15l-1.45-0.84l-3.42-1.98l0.56,1.98 M65.43,58.55c-0.03,0.45-0.2,0.8-0.49,1.06
					c-0.3,0.26-0.69,0.39-1.18,0.39c-0.54,0-0.96-0.18-1.26-0.54c-0.31-0.36-0.46-0.85-0.46-1.48v-0.26c0-0.4,0.07-0.75,0.21-1.06
					c0.14-0.3,0.34-0.54,0.6-0.7c0.26-0.16,0.57-0.24,0.92-0.24c0.48,0,0.87,0.13,1.16,0.39c0.29,0.26,0.46,0.62,0.51,1.08h-0.86
					c-0.02-0.27-0.09-0.46-0.22-0.58c-0.13-0.12-0.33-0.18-0.59-0.18c-0.29,0-0.5,0.1-0.64,0.31c-0.14,0.21-0.22,0.52-0.22,0.95V58
					c0,0.45,0.07,0.78,0.2,0.99c0.13,0.21,0.35,0.31,0.65,0.31c0.27,0,0.46-0.06,0.59-0.18s0.2-0.31,0.22-0.56H65.43z M67.62,57.18
					c0.22-0.26,0.49-0.39,0.83-0.39c0.67,0,1.01,0.39,1.02,1.17v1.98h-0.83v-1.96c0-0.18-0.04-0.31-0.11-0.39
					c-0.08-0.09-0.2-0.13-0.38-0.13c-0.24,0-0.42,0.09-0.53,0.28v2.2H66.8v-4.39h0.83V57.18z M72.77,59.94
					c-0.04-0.07-0.07-0.17-0.09-0.28C72.48,59.89,72.22,60,71.9,60c-0.3,0-0.55-0.09-0.75-0.26s-0.3-0.4-0.3-0.66
					c0-0.33,0.12-0.58,0.36-0.75c0.24-0.18,0.59-0.26,1.05-0.27h0.38v-0.18c0-0.14-0.04-0.26-0.11-0.34
					c-0.07-0.09-0.19-0.13-0.35-0.13c-0.14,0-0.25,0.03-0.33,0.1c-0.08,0.07-0.12,0.16-0.12,0.27h-0.83c0-0.18,0.06-0.35,0.17-0.5
					c0.11-0.15,0.27-0.27,0.47-0.36c0.2-0.09,0.43-0.13,0.68-0.13c0.38,0,0.69,0.1,0.91,0.29c0.22,0.19,0.33,0.46,0.33,0.81v1.34
					c0,0.29,0.04,0.51,0.12,0.67v0.05H72.77z M72.08,59.37c0.12,0,0.24-0.03,0.34-0.08c0.1-0.06,0.18-0.13,0.23-0.22v-0.53h-0.31
					c-0.41,0-0.63,0.14-0.66,0.43l0,0.05c0,0.1,0.04,0.19,0.11,0.26C71.86,59.33,71.95,59.37,72.08,59.37z M75.86,59.94h-0.83v-4.39
					h0.83V59.94z M78.29,59.94h-0.83v-4.39h0.83V59.94z M81.28,60c-0.45,0-0.82-0.14-1.11-0.42c-0.29-0.28-0.43-0.65-0.43-1.11
					v-0.08c0-0.31,0.06-0.59,0.18-0.83c0.12-0.25,0.29-0.44,0.51-0.57c0.22-0.13,0.47-0.2,0.76-0.2c0.42,0,0.76,0.13,1,0.4
					c0.24,0.27,0.36,0.65,0.36,1.14v0.34h-1.97c0.02,0.2,0.11,0.36,0.24,0.49c0.13,0.12,0.3,0.18,0.51,0.18
					c0.32,0,0.56-0.12,0.74-0.35l0.41,0.46c-0.13,0.18-0.29,0.31-0.51,0.41C81.77,59.95,81.53,60,81.28,60z M81.18,57.46
					c-0.16,0-0.29,0.06-0.4,0.17s-0.17,0.27-0.2,0.48h1.15v-0.07c0-0.18-0.05-0.33-0.15-0.43C81.49,57.51,81.36,57.46,81.18,57.46z
					 M84.66,56.85l0.02,0.36c0.22-0.28,0.52-0.41,0.89-0.41c0.33,0,0.57,0.1,0.73,0.29c0.16,0.19,0.24,0.48,0.25,0.86v2h-0.83v-1.98
					c0-0.18-0.04-0.3-0.11-0.38c-0.08-0.08-0.2-0.12-0.38-0.12c-0.23,0-0.41,0.1-0.52,0.3v2.19h-0.83v-3.09H84.66z M87.93,58.37
					c0-0.47,0.11-0.86,0.34-1.15c0.23-0.29,0.53-0.44,0.92-0.44c0.34,0,0.6,0.12,0.79,0.35l0.03-0.29h0.75v2.99
					c0,0.27-0.06,0.5-0.19,0.7c-0.12,0.2-0.29,0.35-0.52,0.46c-0.22,0.11-0.48,0.16-0.78,0.16c-0.23,0-0.45-0.04-0.67-0.13
					s-0.38-0.21-0.49-0.35l0.37-0.5c0.2,0.23,0.46,0.35,0.75,0.35c0.22,0,0.39-0.06,0.51-0.18c0.12-0.12,0.18-0.28,0.18-0.5v-0.17
					C89.74,59.89,89.5,60,89.18,60c-0.38,0-0.67-0.15-0.9-0.44c-0.23-0.29-0.35-0.68-0.35-1.16V58.37z M88.76,58.43
					c0,0.28,0.05,0.5,0.17,0.66c0.11,0.16,0.27,0.24,0.46,0.24c0.25,0,0.43-0.1,0.54-0.28v-1.31c-0.11-0.19-0.29-0.29-0.54-0.29
					c-0.2,0-0.36,0.08-0.47,0.25C88.82,57.86,88.76,58.11,88.76,58.43z M93.7,60c-0.45,0-0.82-0.14-1.11-0.42
					c-0.29-0.28-0.43-0.65-0.43-1.11v-0.08c0-0.31,0.06-0.59,0.18-0.83c0.12-0.25,0.29-0.44,0.51-0.57c0.22-0.13,0.47-0.2,0.76-0.2
					c0.42,0,0.76,0.13,1,0.4c0.24,0.27,0.36,0.65,0.36,1.14v0.34H93c0.02,0.2,0.11,0.36,0.24,0.49c0.13,0.12,0.3,0.18,0.51,0.18
					c0.32,0,0.56-0.12,0.74-0.35l0.41,0.46c-0.13,0.18-0.29,0.31-0.51,0.41C94.19,59.95,93.96,60,93.7,60z M93.6,57.46
					c-0.16,0-0.29,0.06-0.4,0.17s-0.17,0.27-0.2,0.48h1.15v-0.07c0-0.18-0.05-0.33-0.15-0.43C93.91,57.51,93.78,57.46,93.6,57.46z
					 M101.06,59.08h-1.5l-0.29,0.86h-0.91l1.55-4.16h0.8l1.56,4.16h-0.91L101.06,59.08z M99.79,58.39h1.04l-0.52-1.56L99.79,58.39z
					 M104.76,59.33c0.15,0,0.27-0.04,0.37-0.13c0.09-0.08,0.14-0.19,0.15-0.33h0.78c0,0.21-0.06,0.4-0.17,0.58
					c-0.11,0.18-0.27,0.31-0.46,0.41S105.01,60,104.78,60c-0.44,0-0.79-0.14-1.05-0.42c-0.26-0.28-0.38-0.67-0.38-1.17v-0.06
					c0-0.48,0.13-0.86,0.38-1.14c0.25-0.28,0.6-0.43,1.05-0.43c0.39,0,0.69,0.11,0.93,0.33c0.23,0.22,0.35,0.51,0.36,0.88h-0.78
					c0-0.16-0.05-0.29-0.15-0.39c-0.1-0.1-0.22-0.15-0.38-0.15c-0.19,0-0.33,0.07-0.43,0.21c-0.1,0.14-0.15,0.37-0.15,0.68v0.09
					c0,0.32,0.05,0.55,0.15,0.69C104.42,59.26,104.56,59.33,104.76,59.33z M108.7,59.33c0.15,0,0.27-0.04,0.37-0.13
					c0.09-0.08,0.14-0.19,0.15-0.33h0.78c0,0.21-0.06,0.4-0.17,0.58c-0.11,0.18-0.27,0.31-0.46,0.41c-0.2,0.1-0.41,0.15-0.65,0.15
					c-0.44,0-0.79-0.14-1.05-0.42c-0.26-0.28-0.38-0.67-0.38-1.17v-0.06c0-0.48,0.13-0.86,0.38-1.14c0.25-0.28,0.6-0.43,1.05-0.43
					c0.39,0,0.69,0.11,0.93,0.33c0.23,0.22,0.35,0.51,0.36,0.88h-0.78c0-0.16-0.05-0.29-0.15-0.39c-0.1-0.1-0.22-0.15-0.38-0.15
					c-0.19,0-0.33,0.07-0.43,0.21c-0.1,0.14-0.15,0.37-0.15,0.68v0.09c0,0.32,0.05,0.55,0.15,0.69
					C108.35,59.26,108.5,59.33,108.7,59.33z M112.76,60c-0.45,0-0.82-0.14-1.11-0.42c-0.29-0.28-0.43-0.65-0.43-1.11v-0.08
					c0-0.31,0.06-0.59,0.18-0.83c0.12-0.25,0.29-0.44,0.51-0.57c0.22-0.13,0.47-0.2,0.76-0.2c0.42,0,0.76,0.13,1,0.4
					c0.24,0.27,0.36,0.65,0.36,1.14v0.34h-1.97c0.02,0.2,0.11,0.36,0.24,0.49c0.13,0.12,0.3,0.18,0.51,0.18
					c0.32,0,0.56-0.12,0.74-0.35l0.41,0.46c-0.13,0.18-0.29,0.31-0.51,0.41C113.26,59.95,113.02,60,112.76,60z M112.67,57.46
					c-0.16,0-0.29,0.06-0.4,0.17s-0.17,0.27-0.2,0.48h1.15v-0.07c0-0.18-0.05-0.33-0.15-0.43
					C112.98,57.51,112.84,57.46,112.67,57.46z M118.17,58.42c0,0.48-0.11,0.86-0.33,1.14c-0.22,0.29-0.51,0.43-0.87,0.43
					c-0.31,0-0.57-0.11-0.76-0.33v1.46h-0.83v-4.28h0.76l0.03,0.3c0.2-0.24,0.46-0.36,0.78-0.36c0.38,0,0.68,0.14,0.89,0.42
					c0.21,0.28,0.32,0.67,0.32,1.17V58.42z M117.34,58.36c0-0.29-0.05-0.51-0.15-0.67c-0.1-0.16-0.25-0.24-0.45-0.24
					c-0.26,0-0.44,0.1-0.54,0.3v1.27c0.1,0.2,0.28,0.31,0.54,0.31C117.15,59.33,117.34,59.01,117.34,58.36z M120.55,56.09v0.76h0.53
					v0.61h-0.53V59c0,0.11,0.02,0.2,0.07,0.25c0.04,0.05,0.13,0.08,0.25,0.08c0.09,0,0.17-0.01,0.24-0.02v0.63
					c-0.16,0.05-0.33,0.07-0.5,0.07c-0.58,0-0.88-0.29-0.89-0.88v-1.67h-0.45v-0.61h0.45v-0.76H120.55z M123.84,60
					c-0.45,0-0.82-0.14-1.11-0.42c-0.29-0.28-0.43-0.65-0.43-1.11v-0.08c0-0.31,0.06-0.59,0.18-0.83c0.12-0.25,0.29-0.44,0.51-0.57
					c0.22-0.13,0.47-0.2,0.76-0.2c0.42,0,0.76,0.13,1,0.4c0.24,0.27,0.36,0.65,0.36,1.14v0.34h-1.97c0.02,0.2,0.11,0.36,0.24,0.49
					c0.13,0.12,0.3,0.18,0.51,0.18c0.32,0,0.56-0.12,0.74-0.35l0.41,0.46c-0.13,0.18-0.29,0.31-0.51,0.41
					C124.33,59.95,124.1,60,123.84,60z M123.75,57.46c-0.16,0-0.29,0.06-0.4,0.17c-0.1,0.11-0.17,0.27-0.2,0.48h1.15v-0.07
					c0-0.18-0.05-0.33-0.15-0.43C124.06,57.51,123.92,57.46,123.75,57.46z M126.33,58.37c0-0.48,0.11-0.87,0.33-1.15
					c0.22-0.29,0.51-0.43,0.89-0.43c0.3,0,0.55,0.11,0.75,0.34v-1.58h0.83v4.39h-0.75l-0.04-0.33c-0.2,0.26-0.47,0.39-0.79,0.39
					c-0.37,0-0.66-0.14-0.88-0.43C126.44,59.28,126.33,58.88,126.33,58.37z M127.16,58.43c0,0.29,0.05,0.51,0.16,0.67
					c0.1,0.16,0.25,0.23,0.44,0.23c0.26,0,0.44-0.11,0.54-0.32v-1.23c-0.11-0.22-0.28-0.32-0.54-0.32
					C127.36,57.46,127.16,57.78,127.16,58.43z M134.58,58.49h-1.61v-0.67h1.61V58.49z M139.26,57.18c0.22-0.26,0.49-0.39,0.83-0.39
					c0.67,0,1.01,0.39,1.02,1.17v1.98h-0.83v-1.96c0-0.18-0.04-0.31-0.11-0.39c-0.08-0.09-0.2-0.13-0.38-0.13
					c-0.24,0-0.42,0.09-0.53,0.28v2.2h-0.83v-4.39h0.83V57.18z M143.61,56.09v0.76h0.53v0.61h-0.53V59c0,0.11,0.02,0.2,0.07,0.25
					c0.04,0.05,0.13,0.08,0.25,0.08c0.09,0,0.17-0.01,0.24-0.02v0.63c-0.16,0.05-0.33,0.07-0.5,0.07c-0.58,0-0.88-0.29-0.89-0.88
					v-1.67h-0.45v-0.61h0.45v-0.76H143.61z M146.46,56.09v0.76h0.53v0.61h-0.53V59c0,0.11,0.02,0.2,0.07,0.25
					c0.04,0.05,0.13,0.08,0.25,0.08c0.09,0,0.17-0.01,0.24-0.02v0.63c-0.16,0.05-0.33,0.07-0.5,0.07c-0.58,0-0.88-0.29-0.89-0.88
					v-1.67h-0.45v-0.61h0.45v-0.76H146.46z M151.12,58.42c0,0.48-0.11,0.86-0.33,1.14c-0.22,0.29-0.51,0.43-0.87,0.43
					c-0.31,0-0.57-0.11-0.76-0.33v1.46h-0.83v-4.28h0.76l0.03,0.3c0.2-0.24,0.46-0.36,0.78-0.36c0.38,0,0.68,0.14,0.89,0.42
					c0.21,0.28,0.32,0.67,0.32,1.17V58.42z M150.29,58.36c0-0.29-0.05-0.51-0.15-0.67c-0.1-0.16-0.25-0.24-0.45-0.24
					c-0.26,0-0.44,0.1-0.54,0.3v1.27c0.1,0.2,0.28,0.31,0.54,0.31C150.09,59.33,150.29,59.01,150.29,58.36z M154.18,59.09
					c0-0.1-0.05-0.18-0.15-0.24c-0.1-0.06-0.26-0.11-0.48-0.16c-0.74-0.15-1.1-0.47-1.1-0.94c0-0.27,0.11-0.5,0.34-0.69
					c0.22-0.18,0.52-0.28,0.89-0.28c0.4,0,0.71,0.09,0.94,0.28s0.35,0.42,0.35,0.72h-0.83c0-0.12-0.04-0.22-0.11-0.29
					c-0.07-0.08-0.2-0.11-0.36-0.11c-0.14,0-0.25,0.03-0.32,0.09c-0.08,0.06-0.11,0.14-0.11,0.24c0,0.09,0.04,0.17,0.13,0.22
					c0.09,0.06,0.23,0.1,0.44,0.15c0.2,0.04,0.38,0.09,0.52,0.14c0.44,0.16,0.66,0.44,0.66,0.83c0,0.28-0.12,0.51-0.36,0.68
					c-0.25,0.17-0.56,0.26-0.94,0.26c-0.26,0-0.49-0.05-0.69-0.14c-0.2-0.09-0.36-0.22-0.47-0.38c-0.11-0.16-0.17-0.33-0.17-0.52
					h0.78c0.01,0.15,0.06,0.26,0.16,0.34c0.1,0.08,0.24,0.12,0.4,0.12c0.16,0,0.28-0.03,0.36-0.09S154.18,59.18,154.18,59.09z
					 M156.44,57.19c0-0.13,0.04-0.24,0.13-0.32c0.09-0.08,0.2-0.12,0.33-0.12c0.13,0,0.25,0.04,0.33,0.12
					c0.09,0.08,0.13,0.19,0.13,0.32c0,0.13-0.04,0.23-0.13,0.31c-0.09,0.08-0.2,0.12-0.33,0.12c-0.14,0-0.25-0.04-0.33-0.12
					C156.48,57.43,156.44,57.32,156.44,57.19z M156.44,59.53c0-0.13,0.04-0.24,0.13-0.32c0.09-0.08,0.2-0.12,0.33-0.12
					c0.13,0,0.25,0.04,0.33,0.12c0.09,0.08,0.13,0.19,0.13,0.32s-0.04,0.23-0.13,0.32c-0.09,0.08-0.2,0.12-0.33,0.12
					c-0.14,0-0.25-0.04-0.33-0.12C156.48,59.77,156.44,59.67,156.44,59.53z M159.18,60.3h-0.61l1.53-4.52h0.62L159.18,60.3z
					 M161.54,60.3h-0.61l1.53-4.52h0.62L161.54,60.3z M166.75,59.08h-1.5l-0.29,0.86h-0.91l1.55-4.16h0.8l1.56,4.16h-0.91
					L166.75,59.08z M165.48,58.39h1.04L166,56.83L165.48,58.39z M170.13,59.25h2.1v0.69h-3.17v-0.5l2.06-2.97h-2.05v-0.69h3.12v0.49
					L170.13,59.25z M173.65,59.94v-4.16h1.28c0.36,0,0.69,0.08,0.98,0.25c0.29,0.16,0.51,0.4,0.68,0.7c0.16,0.3,0.24,0.65,0.24,1.04
					v0.19c0,0.39-0.08,0.73-0.24,1.03c-0.16,0.3-0.38,0.54-0.67,0.7s-0.62,0.25-0.98,0.25H173.65z M174.5,56.47v2.78h0.41
					c0.34,0,0.59-0.11,0.77-0.33c0.18-0.22,0.27-0.53,0.27-0.94v-0.22c0-0.42-0.09-0.74-0.26-0.96c-0.18-0.22-0.43-0.33-0.77-0.33
					H174.5z M179.24,59.94h-0.86v-4.16h0.86V59.94z M184.21,59.41c-0.15,0.19-0.37,0.33-0.65,0.43c-0.28,0.1-0.59,0.15-0.94,0.15
					c-0.36,0-0.68-0.08-0.95-0.24c-0.27-0.16-0.48-0.38-0.63-0.68c-0.15-0.3-0.22-0.65-0.22-1.05v-0.28c0-0.41,0.07-0.78,0.21-1.08
					c0.14-0.3,0.34-0.54,0.61-0.7c0.26-0.16,0.57-0.24,0.93-0.24c0.49,0,0.88,0.12,1.16,0.35c0.28,0.24,0.45,0.58,0.49,1.03h-0.83
					c-0.04-0.24-0.12-0.41-0.25-0.52c-0.13-0.11-0.31-0.17-0.54-0.17c-0.29,0-0.51,0.11-0.67,0.33c-0.15,0.22-0.23,0.55-0.23,0.98
					v0.27c0,0.44,0.09,0.77,0.25,0.99c0.17,0.22,0.41,0.33,0.73,0.33c0.32,0,0.55-0.07,0.69-0.21v-0.72h-0.78v-0.63h1.64V59.41z
					 M186.69,59.94h-0.86v-4.16h0.86V59.94z M188.36,59.53c0-0.13,0.04-0.24,0.13-0.32c0.09-0.08,0.2-0.12,0.33-0.12
					c0.13,0,0.25,0.04,0.34,0.12c0.09,0.08,0.13,0.19,0.13,0.32s-0.04,0.23-0.13,0.32c-0.09,0.08-0.2,0.12-0.34,0.12
					c-0.13,0-0.25-0.04-0.33-0.12C188.4,59.77,188.36,59.67,188.36,59.53z M192.18,59.33c0.15,0,0.27-0.04,0.37-0.13
					c0.09-0.08,0.14-0.19,0.15-0.33h0.78c0,0.21-0.06,0.4-0.17,0.58c-0.11,0.18-0.27,0.31-0.46,0.41S192.43,60,192.2,60
					c-0.44,0-0.79-0.14-1.05-0.42c-0.26-0.28-0.38-0.67-0.38-1.17v-0.06c0-0.48,0.13-0.86,0.38-1.14c0.25-0.28,0.6-0.43,1.05-0.43
					c0.39,0,0.69,0.11,0.93,0.33c0.23,0.22,0.35,0.51,0.36,0.88h-0.78c0-0.16-0.05-0.29-0.15-0.39c-0.1-0.1-0.22-0.15-0.38-0.15
					c-0.19,0-0.33,0.07-0.43,0.21c-0.1,0.14-0.15,0.37-0.15,0.68v0.09c0,0.32,0.05,0.55,0.15,0.69
					C191.84,59.26,191.98,59.33,192.18,59.33z M194.7,58.37c0-0.31,0.06-0.58,0.18-0.82c0.12-0.24,0.29-0.43,0.51-0.56
					c0.22-0.13,0.48-0.2,0.77-0.2c0.42,0,0.76,0.13,1.02,0.38c0.27,0.26,0.41,0.6,0.44,1.04l0.01,0.21c0,0.47-0.13,0.86-0.4,1.14
					c-0.26,0.29-0.62,0.43-1.07,0.43c-0.45,0-0.8-0.14-1.07-0.43c-0.27-0.29-0.4-0.67-0.4-1.17V58.37z M195.52,58.42
					c0,0.29,0.06,0.52,0.17,0.68c0.11,0.16,0.27,0.23,0.47,0.23c0.2,0,0.36-0.08,0.47-0.23c0.11-0.15,0.17-0.4,0.17-0.74
					c0-0.29-0.05-0.51-0.17-0.67c-0.11-0.16-0.27-0.24-0.47-0.24c-0.2,0-0.36,0.08-0.47,0.24
					C195.58,57.85,195.52,58.09,195.52,58.42z M199.79,56.85l0.03,0.35c0.22-0.27,0.51-0.4,0.89-0.4c0.4,0,0.67,0.16,0.82,0.47
					c0.22-0.31,0.53-0.47,0.93-0.47c0.33,0,0.58,0.1,0.75,0.29c0.16,0.19,0.25,0.49,0.25,0.88v1.98h-0.83v-1.98
					c0-0.18-0.03-0.3-0.1-0.39c-0.07-0.08-0.19-0.12-0.36-0.12c-0.25,0-0.42,0.12-0.51,0.36l0,2.13h-0.83v-1.98
					c0-0.18-0.04-0.31-0.11-0.39c-0.07-0.08-0.19-0.12-0.36-0.12c-0.24,0-0.4,0.1-0.51,0.29v2.19h-0.83v-3.09H199.79z M55.31,58.68
					h-1.27v-1.27h1.27V58.68z"/>
				<rect id="XMLID_455_" x="50.76" y="54.05" class="st1" width="1.27" height="1.27"/>
				<rect id="XMLID_454_" x="50.76" y="55.73" class="st1" width="1.27" height="1.27"/>
				<rect id="XMLID_453_" x="50.76" y="57.41" class="st1" width="1.27" height="1.27"/>
				<rect id="XMLID_452_" x="50.76" y="59.09" class="st1" width="1.27" height="1.27"/>
				<rect id="XMLID_451_" x="50.76" y="60.77" class="st1" width="1.27" height="1.27"/>
				<rect id="XMLID_450_" x="49.08" y="54.05" class="st1" width="1.27" height="1.27"/>
				<rect id="XMLID_449_" x="49.08" y="55.73" class="st1" width="1.27" height="1.27"/>
				<rect id="XMLID_448_" x="49.08" y="59.09" class="st1" width="1.27" height="1.27"/>
				<rect id="XMLID_447_" x="49.08" y="60.77" class="st1" width="1.27" height="1.27"/>
				<rect id="XMLID_446_" x="47.4" y="54.05" class="st1" width="1.27" height="1.27"/>
				<rect id="XMLID_445_" x="47.4" y="55.73" class="st1" width="1.27" height="1.27"/>
				<rect id="XMLID_444_" x="47.4" y="57.41" class="st1" width="1.27" height="1.27"/>
				<rect id="XMLID_443_" x="47.4" y="59.09" class="st1" width="1.27" height="1.27"/>
				<rect id="XMLID_442_" x="47.4" y="60.77" class="st1" width="1.27" height="1.27"/>
				<rect id="XMLID_441_" x="45.72" y="54.05" class="st1" width="1.27" height="1.27"/>
				<rect id="XMLID_440_" x="45.72" y="55.73" class="st1" width="1.27" height="1.27"/>
				<rect id="XMLID_439_" x="45.72" y="57.41" class="st1" width="1.27" height="1.27"/>
				<rect id="XMLID_438_" x="45.72" y="60.77" class="st1" width="1.27" height="1.27"/>
				<rect id="XMLID_437_" x="44.04" y="54.05" class="st1" width="1.27" height="1.27"/>
				<rect id="XMLID_436_" x="38.73" y="54.05" class="st1" width="1.27" height="1.27"/>
				<rect id="XMLID_435_" x="34.99" y="54.05" class="st1" width="1.27" height="1.27"/>
				<rect id="XMLID_434_" x="29.13" y="54.05" class="st1" width="1.27" height="1.27"/>
				<rect id="XMLID_433_" x="44.04" y="55.73" class="st1" width="1.27" height="1.27"/>
				<rect id="XMLID_432_" x="44.04" y="57.41" class="st1" width="1.27" height="1.27"/>
				<rect id="XMLID_431_" x="44.04" y="59.09" class="st1" width="1.27" height="1.27"/>
				<rect id="XMLID_430_" x="42.38" y="57.41" class="st1" width="1.27" height="1.27"/>
				<rect id="XMLID_429_" x="40.7" y="55.73" class="st1" width="1.27" height="1.27"/>
				<rect id="XMLID_428_" x="40.7" y="59.09" class="st1" width="1.27" height="1.27"/>
				<rect id="XMLID_427_" x="34.99" y="59.09" class="st1" width="1.27" height="1.27"/>
				<rect id="XMLID_426_" x="39.02" y="57.41" class="st1" width="1.27" height="1.27"/>
				<rect id="XMLID_425_" x="33.33" y="57.41" class="st1" width="1.27" height="1.27"/>
				<rect id="XMLID_424_" x="26.61" y="57.41" class="st1" width="1.27" height="1.27"/>
				<rect id="XMLID_423_" x="44.04" y="60.77" class="st1" width="1.27" height="1.27"/>
				<rect id="XMLID_422_" x="42.38" y="60.77" class="st1" width="1.27" height="1.27"/>
				<rect id="XMLID_421_" x="39.02" y="60.77" class="st1" width="1.27" height="1.27"/>
				<rect id="XMLID_420_" x="31.23" y="60.77" class="st1" width="1.27" height="1.27"/>
			</g>
		</g>
	</g>
	<g id="XMLID_233_">
		<g id="XMLID_235_">
			<g id="XMLID_236_">
				<path id="XMLID_245_" class="st1" d="M106.38,46.21H84.7V28.16h10.07v10.6h11.62c5.57,0,9.58-2.77,9.58-6.92
					c0-4.07-4.16-7.05-9.58-7.05H84.7l6.39-7.53h15.3c11.33,0,19.51,5.84,19.51,14.2C125.89,39.84,117.61,46.21,106.38,46.21z"/>
				<path id="XMLID_243_" class="st1" d="M141.14,46.21h-10.02V17.25h10.02V46.21z"/>
				<path id="XMLID_241_" class="st1" d="M167.37,28.12h20.72v18.09h-22.22c-11.23,0-19.51-6.36-19.51-14.76
					c0-8.48,8.28-14.2,19.51-14.2h23.19l-6.49,7.53h-16.7c-5.42,0-9.54,2.94-9.54,7.05c0,4.2,3.97,6.92,9.54,6.92h12.25v-4.2h-16.75
					L167.37,28.12z"/>
				<path id="XMLID_237_" class="st1" d="M204.02,46.21H194V17.25h10.02V46.21z"/>
			</g>
		</g>
	</g>
</g>
</svg>
